<svg width="32" height="32" viewBox="0 0 32 32" fill="none" xmlns="http://www.w3.org/2000/svg">
  <defs>
    <linearGradient id="iris" x1="0" y1="0" x2="32" y2="32" gradientUnits="userSpaceOnUse">
      <stop stop-color="#1964DC"/>
      <stop offset="1" stop-color="#6CB8EA"/>
    </linearGradient>
  </defs>
  <rect width="32" height="32" rx="8" fill="url(#iris)"/>
  <path d="M16 6c0 5 1 6 6 6-5 0-6 1-6 6 0-5-1-6-6-6 5 0 6-1 6-6Z" fill="#fff"/>
  <path d="M23.5 18.5c0 2.2.4 2.6 2.6 2.6-2.2 0-2.6.4-2.6 2.6 0-2.2-.4-2.6-2.6-2.6 2.2 0 2.6-.4 2.6-2.6Z" fill="#fff" fill-opacity="0.85"/>
</svg>
